<svg width="12" height="11" viewBox="0 0 12 11" fill="none" xmlns="http://www.w3.org/2000/svg">
<path d="M11.3833 8.18323L11.3765 1.32678C11.3765 0.793579 11.021 0.431274 10.481 0.431274H3.61768C3.11182 0.431274 2.74268 0.814087 2.74268 1.27209C2.74268 1.72327 3.13232 2.09241 3.604 2.09241H6.08545L8.73096 1.9967L7.50732 3.08362L1.19775 9.40002C1.02002 9.57776 0.91748 9.80334 0.91748 10.0221C0.91748 10.4664 1.32764 10.8903 1.78564 10.8903C2.01123 10.8903 2.22314 10.7946 2.40771 10.61L8.72412 4.30042L9.81787 3.07678L9.7085 5.61975V8.1969C9.7085 8.67542 10.0776 9.06506 10.5356 9.06506C10.9937 9.06506 11.3833 8.68225 11.3833 8.18323Z" fill="#035DD4"/>
</svg>
