<svg width="30" height="38" viewBox="0 0 30 38" fill="none" xmlns="http://www.w3.org/2000/svg">
<path d="M15.1016 37.25C15.3164 37.25 15.4922 37.1719 15.6484 37.0156L28.9492 23.8125C29.2617 23.5 29.3398 23.3047 29.3398 23.0898C29.3398 22.6406 29.0078 22.3281 28.6172 22.3281C28.4023 22.3281 28.207 22.3867 28.0508 22.5234L20.2383 30.3359L15.7461 34.9844L15.8438 30.7266L15.8438 1.72266C15.8438 1.3125 15.5312 0.980469 15.1016 0.980469C14.6719 0.980469 14.3594 1.3125 14.3594 1.72266L14.3594 30.7266L14.4766 35.0039L9.96484 30.3359L2.15234 22.5234C2.03516 22.4063 1.82031 22.3281 1.60547 22.3281C1.19531 22.3281 0.863281 22.6406 0.863281 23.0898C0.863281 23.3047 0.941406 23.4609 1.09766 23.6367L14.5547 37.0156C14.7109 37.1719 14.8867 37.25 15.1016 37.25Z" fill="#848484"/>
</svg>
