<svg width="25" height="25" viewBox="0 0 25 25" fill="none" xmlns="http://www.w3.org/2000/svg">
<g clip-path="url(#clip0_2_55)">
<path d="M12.8258 0.164062C19.4227 0.164062 24.7765 5.51791 24.7765 12.1148C24.7765 18.0841 20.4073 23.0318 14.6719 23.9056L14.696 23.9011L14.6965 15.5733H17.4781L18.0073 12.1271L17.991 12.1271L17.995 12.1025L14.684 12.1021L14.6842 9.88714C14.6842 8.93945 15.1642 8.01637 16.6412 8.01637H18.1427V5.08714C18.1427 5.08714 18.1389 5.08644 18.1314 5.08513L18.1304 5.07483C18.1304 5.07483 16.7765 4.82868 15.4719 4.82868C12.7396 4.82868 10.9673 6.49022 10.9673 9.48099V12.1148H7.915V15.561L7.927 15.5601L7.92731 15.5733L10.967 15.5731L10.9673 23.9179C5.34291 23.047 1.02607 18.2535 0.878881 12.4227L0.875 12.1148C0.875 5.51791 6.22885 0.164062 12.8258 0.164062Z" fill="#E5EFFB"/>
</g>
<defs>
<clipPath id="clip0_2_55">
<rect width="24" height="24" fill="white" transform="translate(0.875 0.164062)"/>
</clipPath>
</defs>
</svg>
