<svg width="25" height="25" viewBox="0 0 25 25" fill="none" xmlns="http://www.w3.org/2000/svg">
<g clip-path="url(#clip0_2_61)">
<mask id="mask0_2_61" style="mask-type:alpha" maskUnits="userSpaceOnUse" x="0" y="0" width="25" height="25">
<path d="M0.875 0.171875H24.8674V24.1614H0.875V0.171875Z" fill="white"/>
</mask>
<g mask="url(#mask0_2_61)">
<path fill-rule="evenodd" clip-rule="evenodd" d="M12.8712 0.171875C9.61324 0.171875 9.20471 0.185685 7.92519 0.244065C6.64833 0.302304 5.77629 0.505113 5.01324 0.801684C4.22438 1.10821 3.55538 1.5184 2.88843 2.1853C2.22152 2.85226 1.81133 3.52126 1.50481 4.31011C1.20824 5.07316 1.00543 5.94521 0.94719 7.22207C0.88881 8.50159 0.875 8.91011 0.875 12.1681C0.875 15.4261 0.88881 15.8346 0.94719 17.1141C1.00543 18.391 1.20824 19.263 1.50481 20.0261C1.81133 20.8149 2.22152 21.4839 2.88843 22.1509C3.55538 22.8178 4.22438 23.228 5.01324 23.5345C5.77629 23.8311 6.64833 24.0339 7.92519 24.0921C9.20471 24.1505 9.61324 24.1643 12.8712 24.1643C16.1292 24.1643 16.5377 24.1505 17.8172 24.0921C19.0941 24.0339 19.9661 23.8311 20.7292 23.5345C21.518 23.228 22.187 22.8178 22.854 22.1509C23.5209 21.4839 23.9311 20.8149 24.2377 20.0261C24.5342 19.263 24.737 18.391 24.7952 17.1141C24.8536 15.8346 24.8674 15.4261 24.8674 12.1681C24.8674 8.91011 24.8536 8.50159 24.7952 7.22207C24.737 5.94521 24.5342 5.07316 24.2377 4.31011C23.9311 3.52126 23.5209 2.85226 22.854 2.1853C22.187 1.5184 21.518 1.10821 20.7292 0.801684C19.9661 0.505113 19.0941 0.302304 17.8172 0.244065C16.5377 0.185685 16.1292 0.171875 12.8712 0.171875ZM12.8712 2.33335C16.0743 2.33335 16.4538 2.34559 17.7187 2.4033C18.8883 2.45664 19.5235 2.65207 19.9462 2.81635C20.5062 3.03397 20.9058 3.29392 21.3256 3.71373C21.7454 4.13349 22.0053 4.53311 22.223 5.09307C22.3872 5.51578 22.5827 6.15097 22.636 7.32059C22.6937 8.58554 22.706 8.96497 22.706 12.1681C22.706 15.3712 22.6937 15.7506 22.636 17.0156C22.5827 18.1852 22.3872 18.8204 22.223 19.2431C22.0053 19.8031 21.7454 20.2027 21.3256 20.6224C20.9058 21.0423 20.5062 21.3022 19.9462 21.5198C19.5235 21.6841 18.8883 21.8795 17.7187 21.9329C16.454 21.9906 16.0746 22.0028 12.8712 22.0028C9.66786 22.0028 9.28852 21.9906 8.02371 21.9329C6.85409 21.8795 6.2189 21.6841 5.79619 21.5198C5.23624 21.3022 4.83662 21.0423 4.41686 20.6224C3.9971 20.2027 3.7371 19.8031 3.51948 19.2431C3.35519 18.8204 3.15976 18.1852 3.10643 17.0156C3.04871 15.7506 3.03648 15.3712 3.03648 12.1681C3.03648 8.96497 3.04871 8.58554 3.10643 7.32059C3.15976 6.15097 3.35519 5.51578 3.51948 5.09307C3.7371 4.53311 3.99705 4.13349 4.41686 3.71373C4.83662 3.29392 5.23624 3.03397 5.79619 2.81635C6.2189 2.65207 6.85409 2.45664 8.02371 2.4033C9.28867 2.34559 9.66809 2.33335 12.8712 2.33335Z" fill="#E5EFFB"/>
</g>
<path fill-rule="evenodd" clip-rule="evenodd" d="M12.8712 16.1668C10.6628 16.1668 8.87247 14.3765 8.87247 12.1681C8.87247 9.95957 10.6628 8.16929 12.8712 8.16929C15.0797 8.16929 16.87 9.95957 16.87 12.1681C16.87 14.3765 15.0797 16.1668 12.8712 16.1668ZM12.8712 6.00781C9.469 6.00781 6.711 8.76581 6.711 12.1681C6.711 15.5702 9.469 18.3282 12.8712 18.3282C16.2734 18.3282 19.0314 15.5702 19.0314 12.1681C19.0314 8.76581 16.2734 6.00781 12.8712 6.00781Z" fill="#E5EFFB"/>
<path fill-rule="evenodd" clip-rule="evenodd" d="M20.7141 5.76477C20.7141 6.55981 20.0695 7.20429 19.2745 7.20429C18.4795 7.20429 17.835 6.55981 17.835 5.76477C17.835 4.96972 18.4795 4.3252 19.2745 4.3252C20.0695 4.3252 20.7141 4.96972 20.7141 5.76477Z" fill="#E5EFFB"/>
</g>
<defs>
<clipPath id="clip0_2_61">
<rect width="24" height="24" fill="white" transform="translate(0.875 0.164062)"/>
</clipPath>
</defs>
</svg>
